# xmcd
#
# Track frame offsets:
#	150
#	17177
#	37335
#	57495
#	78310
#	97437
#	116217
#	136130
#	158107
#	176082
#	193567
#	216095
#
# Disc length: 3156 seconds
#
# Revision: 16
# Processed by: cddbd v1.5.2PL0 Copyright (c) Steve Scherf et al.
# Submitted via: audiograbber 1.83.01
#
DISCID=b30c520c
DTITLE=JULIANE WERDING [1992] - SIE WEISS, WAS SIE WILL
DYEAR=1992
DGENRE=Deutscher Rock Pop
TTITLE0=SIE WEISS, WAS SIE WILL
TTITLE1=ENGEL BRAUCHEN KEINE VÄTER
TTITLE2=ANS MEER ZURÜCK
TTITLE3=LIEBEN FÜR IMMER
TTITLE4=WEISSE PFERDE
TTITLE5=SIE IST JUNG
TTITLE6=GEISTER ÜBER AFRIKA
TTITLE7=DIE NACHT HAT EINE TÜR
TTITLE8=SIEBEN ZIMMER
TTITLE9=DIE HOFFNUNG LEBT
TTITLE10=VENUS ERWACHT
TTITLE11=EISKALTER SOMMER
EXTD=
EXTT0=
EXTT1=
EXTT2=
EXTT3=
EXTT4=
EXTT5=
EXTT6=
EXTT7=
EXTT8=
EXTT9=
EXTT10=
EXTT11=
PLAYORDER=
